# xmcd
# Copyright (c) 1998 CDDB Inc.
#
# Track frame offsets:
#	150
#	15827
#	30612
#	42803
#	56960
#	77330
#	91498
#	105698
#	122704
#	134316
#	148593
#	163372
#	183865
#	190902
#
# Disc length: 2725 seconds
#
# Revision: 0
# Processed by: cddbd v1.4PL0 Copyright (c) Steve Scherf et al.
# Submitted via: audiograbber 1.70
#
DISCID=b50aa30e
DTITLE=Трофим - Избранное
DYEAR=1900
DGENRE=
TTITLE0=Судьба
TTITLE1=С добрым утром
TTITLE2=Бьюсь как рыба
TTITLE3=Короче,  дело к ночи
TTITLE4=Танька
TTITLE5=Братва
TTITLE6=В такую тьму
TTITLE7=Эх, дал бы кто взаймы
TTITLE8=ТВ новости
TTITLE9=Иномарка
TTITLE10=Аристократия помойки
TTITLE11=Про рекламу
TTITLE12=Алкаш
TTITLE13=Как недолог век
EXTD=
EXTT0=
EXTT1=
EXTT2=
EXTT3=
EXTT4=
EXTT5=
EXTT6=
EXTT7=
EXTT8=
EXTT9=
EXTT10=
EXTT11=
EXTT12=
EXTT13=
PLAYORDER=
